#Comment line ignore any data following # character 
#Hierarchical Translation and Rotation (.htr) file 
[Header]	
#Header keywords are followed by a single value 
FileType HTR		#Single word string
DataType HTRS		#Translation followed by rotation and scale data
FileVersion 1		#integer
NumSegments 84		#integer
NumFrames 2		#integer
DataFrameRate 30		#integer, data frame rate in this file
EulerRotationOrder ZYX
CalibrationUnits mm
RotationUnits Degrees
GlobalAxisofGravity Y
BoneLengthAxis Y
ScaleFactor 1.00
[SegmentNames&Hierarchy]
#CHILD	PARENT
MASTER GLOBAL
root MASTER
chest root
L_mid_tent01 root
R_mid_tent01 root
spine01 root
Bip01_Neck chest
L_humerus chest
R_humerus chest
weapon_bone chest
Bip01_Head Bip01_Neck
eye_left_bone Bip01_Head
eye_right_bone Bip01_Head
L_forearm L_humerus
L_front_hand L_forearm
L_weapon_bone L_forearm
L_front_hand01_01 L_front_hand
L_front_hand02_01 L_front_hand
L_front_hand03_01 L_front_hand
L_front_hand01_02 L_front_hand01_01
L_front_hand02_02 L_front_hand02_01
L_front_hand03_02 L_front_hand03_01
R_forearm R_humerus
R_front_hand R_forearm
R_weapon_bone R_forearm
R_front_hand01_01 R_front_hand
R_front_hand02_01 R_front_hand
R_front_hand03_01 R_front_hand
R_front_hand01_02 R_front_hand01_01
R_front_hand02_02 R_front_hand02_01
R_front_hand03_02 R_front_hand03_01
null_rope01_connect L_mid_tent01
Rope1_Seg01 null_rope01_connect
Rope1_Seg02 Rope1_Seg01
Rope1_Seg03 Rope1_Seg02
Rope1_Seg04 Rope1_Seg03
Rope1_Seg05 Rope1_Seg04
Rope1_Seg06 Rope1_Seg05
Rope1_Seg07 Rope1_Seg06
Rope1_Seg09 Rope1_Seg07
L_mid_hand01 Rope1_Seg09
L_mid_hand02 Rope1_Seg09
L_mid_hand03 Rope1_Seg09
null_rope02_connect R_mid_tent01
Rope2_Seg01 null_rope02_connect
Rope2_Seg02 Rope2_Seg01
Rope2_Seg03 Rope2_Seg02
Rope2_Seg04 Rope2_Seg03
Rope2_Seg05 Rope2_Seg04
Rope2_Seg06 Rope2_Seg05
Rope2_Seg07 Rope2_Seg06
Rope2_Seg09 Rope2_Seg07
R_mid_hand01 Rope2_Seg09
R_mid_hand02 Rope2_Seg09
R_mid_hand03 Rope2_Seg09
spine02 spine01
spine03 spine02
pelvis spine03
null_rope03_connect pelvis
null_rope04_connect pelvis
Rope3_Seg01 null_rope03_connect
Rope3_Seg02 Rope3_Seg01
Rope3_Seg03 Rope3_Seg02
Rope3_Seg04 Rope3_Seg03
Rope3_Seg05 Rope3_Seg04
Rope3_Seg06 Rope3_Seg05
Rope3_Seg07 Rope3_Seg06
Rope3_Seg08 Rope3_Seg07
Rope3_Seg09 Rope3_Seg08
R_rear_hand01 Rope3_Seg09
R_rear_hand02 Rope3_Seg09
R_rear_hand03 Rope3_Seg09
Rope4_Seg01 null_rope04_connect
Rope4_Seg02 Rope4_Seg01
Rope4_Seg03 Rope4_Seg02
Rope4_Seg04 Rope4_Seg03
Rope4_Seg05 Rope4_Seg04
Rope4_Seg06 Rope4_Seg05
Rope4_Seg07 Rope4_Seg06
Rope4_Seg08 Rope4_Seg07
Rope4_Seg09 Rope4_Seg08
L_rear_hand01 Rope4_Seg09
L_rear_hand02 Rope4_Seg09
L_rear_hand03 Rope4_Seg09
[BasePosition]
#SegmentName Tx, Ty, Tz, Rx, Ry, Rz, BoneLength
MASTER 0.000000 0.000000 0.000000 -90.000000 0.000000 0.000000 10.000000 
root 0.000000 0.000000 0.000000 0.000000 0.000000 0.000000 10.000000 
chest 0.000000 0.000000 0.000000 0.000000 0.000000 0.000000 10.000000 
L_mid_tent01 0.000000 0.000000 0.000000 0.000000 0.000000 0.000000 10.000000 
R_mid_tent01 0.000000 0.000000 0.000000 0.000000 0.000000 0.000000 10.000000 
spine01 0.000000 0.000000 0.000000 0.000000 0.000000 0.000000 10.000000 
Bip01_Neck 0.000000 0.000000 0.000000 0.000000 0.000000 0.000000 10.000000 
L_humerus 0.000000 0.000000 0.000000 0.000000 0.000000 0.000000 10.000000 
R_humerus 0.000000 0.000000 0.000000 0.000000 0.000000 0.000000 10.000000 
weapon_bone 0.000000 0.000000 0.000000 0.000000 0.000000 0.000000 10.000000 
Bip01_Head 0.000000 0.000000 0.000000 0.000000 0.000000 0.000000 10.000000 
eye_left_bone 0.000000 0.000000 0.000000 0.000000 0.000000 0.000000 10.000000 
eye_right_bone 0.000000 0.000000 0.000000 0.000000 0.000000 0.000000 10.000000 
L_forearm 0.000000 0.000000 0.000000 0.000000 0.000000 0.000000 10.000000 
L_front_hand 0.000000 0.000000 0.000000 0.000000 0.000000 0.000000 10.000000 
L_weapon_bone 0.000000 0.000000 0.000000 0.000000 0.000000 0.000000 10.000000 
L_front_hand01_01 0.000000 0.000000 0.000000 0.000000 0.000000 0.000000 10.000000 
L_front_hand02_01 0.000000 0.000000 0.000000 0.000000 0.000000 0.000000 10.000000 
L_front_hand03_01 0.000000 0.000000 0.000000 0.000000 0.000000 0.000000 10.000000 
L_front_hand01_02 0.000000 0.000000 0.000000 0.000000 0.000000 0.000000 10.000000 
L_front_hand02_02 0.000000 0.000000 0.000000 0.000000 0.000000 0.000000 10.000000 
L_front_hand03_02 0.000000 0.000000 0.000000 0.000000 0.000000 0.000000 10.000000 
R_forearm 0.000000 0.000000 0.000000 0.000000 0.000000 0.000000 10.000000 
R_front_hand 0.000000 0.000000 0.000000 0.000000 0.000000 0.000000 10.000000 
R_weapon_bone 0.000000 0.000000 0.000000 0.000000 0.000000 0.000000 10.000000 
R_front_hand01_01 0.000000 0.000000 0.000000 0.000000 0.000000 0.000000 10.000000 
R_front_hand02_01 0.000000 0.000000 0.000000 0.000000 0.000000 0.000000 10.000000 
R_front_hand03_01 0.000000 0.000000 0.000000 0.000000 0.000000 0.000000 10.000000 
R_front_hand01_02 0.000000 0.000000 0.000000 0.000000 0.000000 0.000000 10.000000 
R_front_hand02_02 0.000000 0.000000 0.000000 0.000000 0.000000 0.000000 10.000000 
R_front_hand03_02 0.000000 0.000000 0.000000 0.000000 0.000000 0.000000 10.000000 
null_rope01_connect 0.000000 0.000000 0.000000 0.000000 0.000000 0.000000 10.000000 
Rope1_Seg01 0.000000 0.000000 0.000000 0.000000 0.000000 0.000000 10.000000 
Rope1_Seg02 0.000000 0.000000 0.000000 0.000000 0.000000 0.000000 10.000000 
Rope1_Seg03 0.000000 0.000000 0.000000 0.000000 0.000000 0.000000 10.000000 
Rope1_Seg04 0.000000 0.000000 0.000000 0.000000 0.000000 0.000000 10.000000 
Rope1_Seg05 0.000000 0.000000 0.000000 0.000000 0.000000 0.000000 10.000000 
Rope1_Seg06 0.000000 0.000000 0.000000 0.000000 0.000000 0.000000 10.000000 
Rope1_Seg07 0.000000 0.000000 0.000000 0.000000 0.000000 0.000000 10.000000 
Rope1_Seg09 0.000000 0.000000 0.000000 0.000000 0.000000 0.000000 10.000000 
L_mid_hand01 0.000000 0.000000 0.000000 0.000000 0.000000 0.000000 10.000000 
L_mid_hand02 0.000000 0.000000 0.000000 0.000000 0.000000 0.000000 10.000000 
L_mid_hand03 0.000000 0.000000 0.000000 0.000000 0.000000 0.000000 10.000000 
null_rope02_connect 0.000000 0.000000 0.000000 0.000000 0.000000 0.000000 10.000000 
Rope2_Seg01 0.000000 0.000000 0.000000 0.000000 0.000000 0.000000 10.000000 
Rope2_Seg02 0.000000 0.000000 0.000000 0.000000 0.000000 0.000000 10.000000 
Rope2_Seg03 0.000000 0.000000 0.000000 0.000000 0.000000 0.000000 10.000000 
Rope2_Seg04 0.000000 0.000000 0.000000 0.000000 0.000000 0.000000 10.000000 
Rope2_Seg05 0.000000 0.000000 0.000000 0.000000 0.000000 0.000000 10.000000 
Rope2_Seg06 0.000000 0.000000 0.000000 0.000000 0.000000 0.000000 10.000000 
Rope2_Seg07 0.000000 0.000000 0.000000 0.000000 0.000000 0.000000 10.000000 
Rope2_Seg09 0.000000 0.000000 0.000000 0.000000 0.000000 0.000000 10.000000 
R_mid_hand01 0.000000 0.000000 0.000000 0.000000 0.000000 0.000000 10.000000 
R_mid_hand02 0.000000 0.000000 0.000000 0.000000 0.000000 0.000000 10.000000 
R_mid_hand03 0.000000 0.000000 0.000000 0.000000 0.000000 0.000000 10.000000 
spine02 0.000000 0.000000 0.000000 0.000000 0.000000 0.000000 10.000000 
spine03 0.000000 0.000000 0.000000 0.000000 0.000000 0.000000 10.000000 
pelvis 0.000000 0.000000 0.000000 0.000000 0.000000 0.000000 10.000000 
null_rope03_connect 0.000000 0.000000 0.000000 0.000000 0.000000 0.000000 10.000000 
null_rope04_connect 0.000000 0.000000 0.000000 0.000000 0.000000 0.000000 10.000000 
Rope3_Seg01 0.000000 0.000000 0.000000 0.000000 0.000000 0.000000 10.000000 
Rope3_Seg02 0.000000 0.000000 0.000000 0.000000 0.000000 0.000000 10.000000 
Rope3_Seg03 0.000000 0.000000 0.000000 0.000000 0.000000 0.000000 10.000000 
Rope3_Seg04 0.000000 0.000000 0.000000 0.000000 0.000000 0.000000 10.000000 
Rope3_Seg05 0.000000 0.000000 0.000000 0.000000 0.000000 0.000000 10.000000 
Rope3_Seg06 0.000000 0.000000 0.000000 0.000000 0.000000 0.000000 10.000000 
Rope3_Seg07 0.000000 0.000000 0.000000 0.000000 0.000000 0.000000 10.000000 
Rope3_Seg08 0.000000 0.000000 0.000000 0.000000 0.000000 0.000000 10.000000 
Rope3_Seg09 0.000000 0.000000 0.000000 0.000000 0.000000 0.000000 10.000000 
R_rear_hand01 0.000000 0.000000 0.000000 0.000000 0.000000 0.000000 10.000000 
R_rear_hand02 0.000000 0.000000 0.000000 0.000000 0.000000 0.000000 10.000000 
R_rear_hand03 0.000000 0.000000 0.000000 0.000000 0.000000 0.000000 10.000000 
Rope4_Seg01 0.000000 0.000000 0.000000 0.000000 0.000000 0.000000 10.000000 
Rope4_Seg02 0.000000 0.000000 0.000000 0.000000 0.000000 0.000000 10.000000 
Rope4_Seg03 0.000000 0.000000 0.000000 0.000000 0.000000 0.000000 10.000000 
Rope4_Seg04 0.000000 0.000000 0.000000 0.000000 0.000000 0.000000 10.000000 
Rope4_Seg05 0.000000 0.000000 0.000000 0.000000 0.000000 0.000000 10.000000 
Rope4_Seg06 0.000000 0.000000 0.000000 0.000000 0.000000 0.000000 10.000000 
Rope4_Seg07 0.000000 0.000000 0.000000 0.000000 0.000000 0.000000 10.000000 
Rope4_Seg08 0.000000 0.000000 0.000000 0.000000 0.000000 0.000000 10.000000 
Rope4_Seg09 0.000000 0.000000 0.000000 0.000000 0.000000 0.000000 10.000000 
L_rear_hand01 0.000000 0.000000 0.000000 0.000000 0.000000 0.000000 10.000000 
L_rear_hand02 0.000000 0.000000 0.000000 0.000000 0.000000 0.000000 10.000000 
L_rear_hand03 0.000000 0.000000 0.000000 0.000000 0.000000 0.000000 10.000000 
#Beginning of Data. Separated by tabs
#Fr	Tx	Ty	Tz	Rx	Ry	Rz	SF
[MASTER]
10 0.000000 0.000000 0.000000 0.001660 0.001660 0.001660 0.000000
11 0.000000 0.000000 0.000000 0.001660 0.001660 0.001660 0.000000
[root]
10 -14.136775 -78.814919 1441.556274 -91.629700 -27.676081 -90.148109 1443.778442
11 -15.376587 -77.881638 1442.306030 -91.629707 -27.676092 -90.148117 1444.489014
[chest]
10 -84.512650 -34.090519 0.000000 -1.888050 0.943089 -178.206696 91.129311
11 -84.512650 -34.090519 0.000000 -1.888051 0.943089 -178.206696 91.129311
[L_mid_tent01]
10 27.299536 22.177595 -249.918289 1.932258 22.274696 79.384430 252.381180
11 27.299541 22.177599 -249.918289 2.076869 23.543850 79.532219 252.381180
[R_mid_tent01]
10 23.228794 24.509907 226.238495 158.695358 -40.540154 89.189339 228.744751
11 23.228794 24.509907 226.238495 159.523285 -40.172359 87.756615 228.744751
[spine01]
10 -0.361383 -0.195265 0.000000 0.001845 0.001451 13.654368 0.410763
11 -0.361383 -0.195265 0.000000 0.001845 0.001451 13.654368 0.410763
[Bip01_Neck]
10 165.484543 71.581718 0.000119 176.643677 -1.657967 43.431911 180.302734
11 165.484543 71.581718 0.000119 176.643677 -1.657967 43.431911 180.302734
[L_humerus]
10 -13.983130 -135.272980 -120.471481 156.317398 70.210068 -112.010254 181.680161
11 -13.983130 -135.272980 -120.471481 156.317398 70.210068 -112.010254 181.680161
[R_humerus]
10 -13.983309 -135.273102 125.287651 -172.382263 -66.903831 -92.553993 184.909012
11 -13.983309 -135.273102 125.287651 -172.382263 -66.903831 -92.553993 184.909012
[weapon_bone]
10 235.964890 -300.705902 0.000000 0.000000 -89.951546 -128.212341 382.234833
11 235.964890 -300.705902 0.000000 0.000000 -89.951546 -128.212341 382.234833
[Bip01_Head]
10 213.509140 185.535049 14.107072 4.962490 2.797846 -43.898743 283.210907
11 213.553452 185.411835 15.697116 4.440152 -1.457900 -43.897720 283.247284
[eye_left_bone]
10 -24.626970 125.451866 -64.772606 0.000000 -90.000000 -99.840431 143.318359
11 -24.626970 125.451866 -64.772606 0.000000 -90.000000 -99.840431 143.318359
[eye_right_bone]
10 -24.626970 125.451866 64.327362 0.000000 -89.965736 80.156380 143.117676
11 -24.626970 125.451866 64.327362 0.000000 -89.980217 80.156380 143.117676
[L_forearm]
10 322.776093 0.000000 -0.000119 0.000119 -0.002344 -95.807457 322.776093
11 322.776093 0.000000 -0.000119 0.000119 -0.002344 -95.807457 322.776093
[L_front_hand]
10 241.149185 -0.042021 -3.300071 -178.667953 -1.835447 -27.422350 241.171753
11 241.149185 -0.042021 -3.300071 -178.667953 -1.835447 -27.422350 241.171753
[L_weapon_bone]
10 156.183838 0.000000 0.000000 0.000014 0.000007 0.000001 156.183838
11 156.183838 0.000000 0.000000 0.000014 0.000007 0.000001 156.183838
[L_front_hand01_01]
10 86.095154 20.947098 -0.655860 -0.291918 -0.522545 67.227623 88.609184
11 86.095154 20.947098 -0.655860 -0.282467 -0.528169 66.067474 88.609184
[L_front_hand02_01]
10 86.935165 -11.437475 24.513514 143.299133 -55.645813 -48.269917 91.046425
11 86.935165 -11.437475 24.513514 141.960785 -54.937954 -46.642345 91.046425
[L_front_hand03_01]
10 86.637497 -14.123976 -20.424902 -143.556335 53.862476 -50.232788 90.126129
11 86.637497 -14.123976 -20.424902 -142.303543 53.163303 -48.671032 90.126129
[L_front_hand01_02]
10 71.020905 -0.000179 0.000030 0.000316 -0.002326 -105.466431 71.020905
11 71.020905 -0.000179 0.000030 0.000315 -0.002326 -105.442802 71.020905
[L_front_hand02_02]
10 71.020927 -0.000119 0.000060 0.000316 -0.002326 -105.466431 71.020927
11 71.020927 -0.000119 0.000060 0.000315 -0.002326 -105.442802 71.020927
[L_front_hand03_02]
10 71.020905 -0.000060 0.000060 0.000316 -0.002326 -105.466431 71.020905
11 71.020905 -0.000060 0.000060 0.000315 -0.002326 -105.442802 71.020905
[R_forearm]
10 322.776428 -0.000060 0.000030 0.209504 0.012586 -94.339050 322.776428
11 322.776428 -0.000060 0.000030 0.209504 0.012586 -94.339050 322.776428
[R_front_hand]
10 238.847015 -0.006795 2.210259 -2.635298 -10.645461 -26.312506 238.857239
11 238.847015 -0.006795 2.210259 -2.635298 -10.645461 -26.312506 238.857239
[R_weapon_bone]
10 155.664093 0.002503 -0.000030 0.003487 0.001180 -90.988930 155.664078
11 155.664093 0.002503 -0.000030 0.003487 0.001180 -90.988930 155.664078
[R_front_hand01_01]
10 87.624611 14.231146 22.918642 -143.671631 -55.829556 48.823868 91.683487
11 87.624611 14.231146 22.918642 -141.947067 -54.924736 46.726738 91.683487
[R_front_hand02_01]
10 89.356956 14.367283 -19.491137 144.272369 54.223438 51.351048 92.579636
11 89.356956 14.367283 -19.491137 142.634140 53.329124 49.315857 92.579636
[R_front_hand03_01]
10 87.286232 -22.307278 -0.143439 0.102142 -0.441771 -67.781387 90.091743
11 87.286232 -22.307278 -0.143439 0.092230 -0.445770 -66.286453 90.091743
[R_front_hand01_02]
10 71.020905 0.000060 0.000119 0.002323 -0.000334 106.381714 71.020905
11 71.020905 0.000060 0.000119 0.002323 -0.000334 106.381714 71.020905
[R_front_hand02_02]
10 71.020844 -0.000030 -0.000119 0.002323 -0.000334 106.381714 71.020836
11 71.020844 -0.000030 -0.000119 0.002323 -0.000334 106.381714 71.020836
[R_front_hand03_02]
10 71.020905 0.000000 0.000030 0.002323 -0.000334 106.381714 71.020905
11 71.020905 0.000000 0.000030 0.002323 -0.000334 106.381714 71.020905
[null_rope01_connect]
10 328.732483 0.000000 -0.000238 -137.365982 -65.973907 176.101639 328.732483
11 328.732483 0.000000 -0.000238 -137.368210 -64.698288 176.012039 328.732483
[Rope1_Seg01]
10 -0.000038 -0.000114 0.000101 119.432198 31.421221 155.309143 0.000157
11 -0.000038 -0.000114 0.000102 119.838692 33.063778 155.156311 0.000158
[Rope1_Seg02]
10 139.999863 -0.000179 0.000000 0.763479 -7.629476 2.553285 139.999863
11 139.999863 -0.000179 0.000000 0.699370 -7.551158 2.875224 139.999863
[Rope1_Seg03]
10 139.999924 0.000060 -0.000060 -0.259164 -14.416542 5.175814 139.999924
11 139.999924 0.000060 -0.000060 -0.338053 -14.175168 5.737536 139.999924
[Rope1_Seg04]
10 139.999924 -0.000060 -0.000119 -11.343525 -35.253632 11.519444 139.999924
11 139.999924 -0.000060 -0.000119 -11.034479 -33.936607 13.089519 139.999924
[Rope1_Seg05]
10 139.999832 0.000119 -0.000060 -17.573606 -24.389822 7.933059 139.999832
11 139.999832 0.000119 -0.000060 -16.623373 -23.501289 8.909290 139.999832
[Rope1_Seg06]
10 139.999954 0.000119 -0.000060 10.331416 2.908042 6.919766 139.999954
11 139.999954 0.000119 -0.000060 8.199665 2.326071 5.382536 139.999954
[Rope1_Seg07]
10 139.999985 0.000060 0.000000 2.432299 -0.543680 2.844749 139.999985
11 139.999985 0.000060 0.000000 1.096529 -1.153218 2.300638 139.999985
[Rope1_Seg09]
10 121.602913 0.000119 -0.000089 -89.793175 -1.359789 0.847147 121.602913
11 121.602913 0.000119 -0.000089 -89.793175 -1.359789 0.847147 121.602913
[L_mid_hand01]
10 103.859421 1.038730 8.195221 109.301483 -41.408253 -13.576799 104.187431
11 103.859421 1.038730 8.195221 110.016693 -43.583393 -14.630751 104.187431
[L_mid_hand02]
10 105.572853 -4.139662 -10.864139 -147.153671 31.943630 -38.737034 106.211075
11 105.572853 -4.139662 -10.864139 -148.402451 33.171711 -41.059566 106.211075
[L_mid_hand03]
10 104.641464 17.579376 -3.913581 -14.087292 12.528420 44.741467 106.179977
11 104.641464 17.579376 -3.913581 -13.575850 13.082139 47.042397 106.179977
[null_rope02_connect]
10 328.732849 0.000179 -0.000119 -119.734352 46.577087 24.154823 328.732849
11 328.732849 0.000179 -0.000119 -119.170029 47.207592 23.676723 328.732849
[Rope2_Seg01]
10 -0.000065 0.000134 0.000153 -58.117138 32.162796 29.855972 0.000213
11 -0.000064 0.000134 0.000153 -57.563908 32.454620 31.277649 0.000212
[Rope2_Seg02]
10 139.999741 -0.000060 -0.000119 -1.003160 -4.865382 4.525474 139.999756
11 139.999741 -0.000060 -0.000119 -0.880785 -4.391971 4.154283 139.999756
[Rope2_Seg03]
10 140.000107 0.000030 0.000000 -1.364008 -8.489822 7.806076 140.000107
11 140.000107 0.000030 0.000000 -1.204957 -7.694421 7.151087 140.000107
[Rope2_Seg04]
10 139.999802 0.000000 -0.000060 -1.512553 -12.666700 16.875023 139.999802
11 139.999802 0.000000 -0.000060 -1.418548 -10.994937 16.110292 139.999802
[Rope2_Seg05]
10 139.999985 -0.000060 0.000119 -3.647549 -30.231886 17.165348 139.999985
11 139.999985 -0.000060 0.000119 -4.068222 -31.508715 18.408922 139.999985
[Rope2_Seg06]
10 139.999893 -0.000030 -0.000119 -2.809440 -10.563936 2.835227 139.999893
11 139.999893 -0.000030 -0.000119 -3.610347 -11.389499 2.564838 139.999893
[Rope2_Seg07]
10 139.999893 0.000060 -0.000060 -0.482603 -4.137343 1.622607 139.999893
11 139.999893 0.000060 -0.000060 -0.751708 -4.238275 1.499420 139.999893
[Rope2_Seg09]
10 121.338966 0.000089 -0.000060 33.793236 -1.359788 -0.847141 121.338966
11 121.338966 0.000089 -0.000060 33.793236 -1.359788 -0.847141 121.338966
[R_mid_hand01]
10 104.680779 11.144459 -10.335981 -34.826851 34.540035 41.908733 105.778534
11 104.680779 11.144459 -10.335981 -36.116535 33.174706 39.598408 105.778534
[R_mid_hand02]
10 104.070427 2.443552 8.231699 68.824310 -46.622631 16.260359 104.424065
11 104.070427 2.443552 8.231699 69.680679 -44.419243 15.065832 104.424065
[R_mid_hand03]
10 106.028137 -11.221827 -5.996406 -170.883774 12.973572 -51.735531 106.788818
11 106.028137 -11.221827 -5.996406 -170.354065 12.593579 -49.350628 106.788818
[spine02]
10 129.756927 0.001550 0.000119 -1.023899 -3.926965 6.770993 129.756927
11 129.756927 0.001550 0.000119 -1.023900 -3.926965 6.770994 129.756927
[spine03]
10 78.613846 0.087372 -4.898873 1.040681 4.146420 4.212376 78.766380
11 78.613846 0.087372 -4.898873 1.040681 4.146420 4.212376 78.766380
[pelvis]
10 169.435242 0.051022 0.000000 0.019518 -0.190233 -10.721436 169.435257
11 169.435242 0.051022 0.000000 0.019518 -0.190233 -10.721436 169.435257
[null_rope03_connect]
10 -1.257226 -2.466202 137.391083 -148.996323 -87.995132 -107.160522 137.418976
11 -1.257226 -2.466202 137.391083 -148.996323 -87.995132 -107.160522 137.418976
[null_rope04_connect]
10 -1.259640 -2.480268 -137.844437 -148.996323 -87.995132 -107.160522 137.872513
11 -1.259640 -2.480268 -137.844437 -148.996323 -87.995132 -107.160522 137.872513
[Rope3_Seg01]
10 0.000000 0.000000 0.000000 -146.075531 -41.424370 -59.630619 0.000000
11 0.000000 0.000000 0.000000 -146.136978 -42.209339 -60.062275 0.000000
[Rope3_Seg02]
10 139.999924 -0.000119 0.000060 -16.787926 7.558638 -27.170153 139.999924
11 139.999924 -0.000119 0.000060 -16.560984 7.414278 -27.216484 139.999924
[Rope3_Seg03]
10 139.999924 -0.000119 0.000119 -56.829304 27.297733 -45.249359 139.999924
11 139.999924 -0.000119 0.000119 -55.776154 26.213903 -44.476070 139.999924
[Rope3_Seg04]
10 139.999924 0.000119 0.000000 -21.607409 30.337017 -11.633455 139.999924
11 139.999924 0.000119 0.000000 -22.273745 30.113485 -11.729389 139.999924
[Rope3_Seg05]
10 139.999924 -0.000238 0.000060 -10.053671 29.337494 -6.053803 139.999924
11 139.999924 -0.000238 0.000060 -10.285844 29.895912 -5.464398 139.999924
[Rope3_Seg06]
10 139.999893 -0.000119 -0.000060 -0.806516 11.157015 -0.032383 139.999893
11 139.999893 -0.000119 -0.000060 -0.789898 11.417311 0.235844 139.999893
[Rope3_Seg07]
10 139.999771 0.000060 -0.000119 0.301714 5.369273 0.169295 139.999771
11 139.999771 0.000060 -0.000119 0.327594 5.443157 0.294506 139.999771
[Rope3_Seg08]
10 139.999985 -0.000060 0.000000 0.523142 2.909703 0.079261 139.999985
11 139.999985 -0.000060 0.000000 0.539543 2.939101 0.139184 139.999985
[Rope3_Seg09]
10 90.185997 -0.000179 -0.000060 89.793228 -1.359877 -0.847183 90.185997
11 90.185997 -0.000179 -0.000060 89.793228 -1.359877 -0.847183 90.185997
[R_rear_hand01]
10 103.366196 -6.073594 -10.757982 -165.718872 20.328495 -43.170486 104.101845
11 103.366196 -6.073594 -10.757982 -165.009155 19.819437 -41.100956 104.101845
[R_rear_hand02]
10 100.509819 12.039542 -7.992327 -29.668055 26.160351 40.761948 101.543350
11 100.509819 12.039542 -7.992327 -30.502344 25.155792 38.836960 101.543350
[R_rear_hand03]
10 101.539970 5.215704 5.435467 82.115250 -43.756126 9.334551 101.819031
11 101.539970 5.215704 5.435467 82.364601 -41.773376 8.967985 101.819031
[Rope4_Seg01]
10 -0.000016 -0.000053 -0.000153 51.673103 -24.293020 -105.758553 0.000162
11 -0.000016 -0.000051 -0.000153 51.412640 -24.597303 -104.946632 0.000162
[Rope4_Seg02]
10 139.999985 0.000060 0.000119 14.234623 -49.213387 15.890597 139.999985
11 139.999985 0.000060 0.000119 14.548959 -50.936127 16.473694 139.999985
[Rope4_Seg03]
10 139.999924 0.000000 -0.000238 41.396786 -33.940563 29.610523 139.999924
11 139.999924 0.000000 -0.000238 40.818050 -32.309605 27.953497 139.999924
[Rope4_Seg04]
10 139.999985 0.000000 0.000119 17.566771 -2.467520 20.630901 139.999985
11 139.999985 0.000000 0.000119 17.808722 -2.578235 20.091301 139.999985
[Rope4_Seg05]
10 139.999802 -0.000060 -0.000119 15.708788 5.336380 34.583954 139.999802
11 139.999802 -0.000060 -0.000119 16.453526 5.505919 35.044525 139.999802
[Rope4_Seg06]
10 139.999924 0.000000 0.000060 3.134057 7.661969 18.000063 139.999924
11 139.999924 0.000000 0.000060 3.354791 8.185346 18.544193 139.999924
[Rope4_Seg07]
10 139.999802 0.000000 0.000000 0.136110 3.392945 7.041020 139.999802
11 139.999802 0.000000 0.000000 0.130863 3.571827 7.155428 139.999802
[Rope4_Seg08]
10 139.999924 0.000000 0.000119 -1.711724 1.760867 3.634151 139.999924
11 139.999924 0.000000 0.000119 -1.725881 1.838744 3.679824 139.999924
[Rope4_Seg09]
10 90.185791 0.000060 0.000060 -135.617828 2.228885 0.850567 90.185791
11 90.185791 0.000060 0.000060 -135.617828 2.228885 0.850567 90.185791
[L_rear_hand01]
10 101.696655 -8.392275 -7.654577 -29.575453 -26.270130 139.027267 102.329041
11 101.696655 -8.392275 -7.654577 -28.015862 -27.942142 135.607529 102.329041
[L_rear_hand02]
10 102.726799 -1.568258 5.773216 82.088585 43.973633 170.624878 102.900848
11 102.726799 -1.568258 5.773216 81.577332 47.415264 169.913025 102.900848
[L_rear_hand03]
10 104.552910 9.721220 -10.420293 -165.800003 -20.376877 -136.601624 105.519653
11 104.552910 9.721220 -10.420293 -167.078079 -21.194330 -132.993347 105.519653
